<svg width="800" height="800" viewBox="0 0 800 800" fill="none" xmlns="http://www.w3.org/2000/svg">
<g clip-path="url(#clip0_7_47)">
<path d="M400 103.333C488.333 128.333 585 158.333 633.333 175V436.667C633.333 493.333 571.667 593.333 400 693.333C228.333 591.667 166.667 493.333 166.667 436.667V175C215 156.667 311.667 128.333 400 103.333ZM400 33.3333C400 33.3333 100 118.333 100 133.333V436.667C100 590 321.667 725 383.333 761.667C388.267 764.963 394.067 766.722 400 766.722C405.933 766.722 411.733 764.963 416.667 761.667C480 726.667 700 590 700 436.667V133.333C700 118.333 400 33.3333 400 33.3333Z" fill="#00A04E"/>
<path d="M326.667 490L243.333 408.333C237.559 402.431 234.057 394.677 233.447 386.442C232.837 378.207 235.158 370.022 240 363.333C242.698 359.317 246.28 355.971 250.472 353.555C254.664 351.138 259.354 349.714 264.182 349.392C269.01 349.07 273.847 349.859 278.323 351.698C282.798 353.537 286.793 356.377 290 360L350 420L510 260C516.419 255.186 524.359 252.848 532.363 253.417C540.367 253.986 547.897 257.423 553.57 263.096C559.244 268.77 562.681 276.3 563.249 284.304C563.818 292.307 561.481 300.248 556.667 306.667L373.333 490C370.367 493.233 366.761 495.814 362.744 497.58C358.728 499.346 354.388 500.258 350 500.258C345.612 500.258 341.272 499.346 337.256 497.58C333.239 495.814 329.633 493.233 326.667 490Z" fill="#00A04E"/>
</g>
<defs>
<clipPath id="clip0_7_47">
<rect width="800" height="800" fill="white"/>
</clipPath>
</defs>
</svg>
