<svg width="800" height="800" viewBox="0 0 800 800" fill="none" xmlns="http://www.w3.org/2000/svg">
<path d="M266.667 266.667H206.673C169.336 266.667 150.654 266.667 136.393 273.933C123.849 280.324 113.658 290.516 107.266 303.06C100 317.321 100 336.003 100 373.34V560.007C100 597.343 100 616.003 107.266 630.263C113.658 642.807 123.849 653.017 136.393 659.407C150.64 666.667 169.3 666.667 206.564 666.667H593.437C630.7 666.667 649.333 666.667 663.58 659.407C676.123 653.017 686.35 642.807 692.74 630.263C700 616.017 700 597.383 700 560.12V373.23C700 335.967 700 317.307 692.74 303.06C686.35 290.516 676.123 280.324 663.58 273.933C649.32 266.667 630.677 266.667 593.34 266.667H533.333M266.667 266.667H533.333M266.667 266.667C266.667 193.029 326.362 133.333 400 133.333C473.637 133.333 533.333 193.029 533.333 266.667" stroke="#00A04E" stroke-width="66.6667" stroke-linecap="round" stroke-linejoin="round"/>
</svg>
