<svg width="800" height="800" viewBox="0 0 800 800" fill="none" xmlns="http://www.w3.org/2000/svg">
<g clip-path="url(#clip0_7_24)">
<path d="M708.333 126.667C689.85 107.809 667.815 92.7978 643.5 82.4998C619.185 72.2017 593.072 66.8205 566.667 66.6667C501.667 66.6667 433.333 118.333 400 175C366.667 118.333 298.333 66.6667 233.333 66.6667C206.928 66.8205 180.815 72.2017 156.5 82.4998C132.185 92.7978 110.15 107.809 91.6667 126.667C73.0355 145.233 58.2833 167.319 48.2687 191.64C38.2541 215.961 33.1771 242.031 33.3333 268.333C33.5323 278.965 34.6475 289.56 36.6667 300H105C101.841 289.735 100.158 279.073 100 268.333C99.9676 250.873 103.498 233.59 110.376 217.542C117.254 201.494 127.334 187.018 140 175C151.956 162.255 166.421 152.122 182.483 145.238C198.545 138.354 215.858 134.868 233.333 135C270 135 318.333 168.333 341.667 208.333L385 283.333C386.692 285.74 388.938 287.705 391.548 289.061C394.159 290.418 397.058 291.126 400 291.126C402.942 291.126 405.841 290.418 408.452 289.061C411.062 287.705 413.308 285.74 415 283.333L458.333 208.333C481.667 168.333 530 135 566.667 135C584.142 134.868 601.455 138.354 617.517 145.238C633.579 152.122 648.044 162.255 660 175C672.666 187.018 682.746 201.494 689.624 217.542C696.502 233.59 700.032 250.873 700 268.333C700 298.333 685 330 655 366.667H431.667L400 418.333L315 275C313.308 272.593 311.062 270.628 308.452 269.272C305.841 267.916 302.942 267.208 300 267.208C297.058 267.208 294.159 267.916 291.548 269.272C288.938 270.628 286.692 272.593 285 275L231.667 366.667H116.667C111.835 366.612 107.049 367.608 102.64 369.587C98.232 371.566 94.3064 374.479 91.1357 378.125C87.965 381.772 85.6249 386.064 84.2777 390.704C82.9304 395.345 82.6082 400.223 83.3333 405C84.9008 413.086 89.2699 420.36 95.6717 425.543C102.074 430.725 110.098 433.484 118.333 433.333H268.333L300 381.667L385 525C386.692 527.407 388.938 529.372 391.548 530.728C394.159 532.084 397.058 532.792 400 532.792C402.942 532.792 405.841 532.084 408.452 530.728C411.062 529.372 413.308 527.407 415 525L468.333 433.333H595L400 641.667L266.667 500H175L388.333 728.333C391.449 731.387 395.637 733.098 400 733.098C404.363 733.098 408.551 731.387 411.667 728.333C461.667 675 650 475 683.333 436.667C716.667 398.333 766.667 336.667 766.667 268.333C766.823 242.031 761.746 215.961 751.731 191.64C741.717 167.319 726.964 145.233 708.333 126.667Z" fill="#00A04E"/>
</g>
<defs>
<clipPath id="clip0_7_24">
<rect width="800" height="800" fill="white"/>
</clipPath>
</defs>
</svg>
